<svg xmlns="http://www.w3.org/2000/svg" xmlns:xlink="http://www.w3.org/1999/xlink" viewBox="0 0 450 450"><defs><style>.cls-1{fill:url(#未命名漸層_114);}.cls-2{fill:url(#未命名漸層_75);}</style><linearGradient id="未命名漸層_114" x1="227.92" y1="462.55" x2="227.92" y2="11.1" gradientTransform="translate(-2.02 -12.69) rotate(0.22)" gradientUnits="userSpaceOnUse"><stop offset="0" stop-color="#aa6200"/><stop offset="0.5" stop-color="#d87215"/><stop offset="1" stop-color="#e28800"/></linearGradient><linearGradient id="未命名漸層_75" x1="227.92" y1="458.55" x2="227.92" y2="15.11" gradientTransform="translate(-2.02 -12.69) rotate(0.22)" gradientUnits="userSpaceOnUse"><stop offset="0" stop-color="#de8626"/><stop offset="0.99" stop-color="#ebb63c"/></linearGradient></defs><g id="item"><path class="cls-1" d="M34.23,450,0,414.78V34.36L33.52,0H417.83L450,35.35V415.77L415.51,450ZM17.56,407.59l24,24.18,366.77.67,24.17-24,.42-365.91-24-24.17L42.15,17.69,18,41.68Z"/><path class="cls-2" d="M35.92,446,4,413.16V36L35.21,4H416.06L446,36.89V414.11L413.86,446ZM14,40l-.42,369.21,26.33,26.54,370.07.67,26.53-26.33.42-369.21L410.58,14.37,40.51,13.69Z"/></g></svg>